<mxfile host="app.diagrams.net" agent="Mozilla/5.0 (Windows NT 10.0; Win64; x64) AppleWebKit/537.36 (KHTML, like Gecko) Chrome/130.0.0.0 Safari/537.36" version="24.8.6">
  <diagram id="C5RBs43oDa-KdzZeNtuy" name="Page-1">
    <mxGraphModel grid="1" page="1" gridSize="10" guides="1" tooltips="1" connect="1" arrows="1" fold="1" pageScale="1" pageWidth="827" pageHeight="1169" math="0" shadow="0">
      <root>
        <mxCell id="WIyWlLk6GJQsqaUBKTNV-0" />
        <mxCell id="WIyWlLk6GJQsqaUBKTNV-1" parent="WIyWlLk6GJQsqaUBKTNV-0" />
        <mxCell id="Hs-CbxqH57ZrqjoUu4gl-15" value="Electronics &lt;span class=&quot;hljs-operator&quot;&gt;&amp;amp;&lt;/span&gt; Control &lt;span class=&quot;hljs-keyword&quot;&gt;System&lt;/span&gt;" style="shape=ext;double=1;rounded=0;whiteSpace=wrap;html=1;" vertex="1" parent="WIyWlLk6GJQsqaUBKTNV-1">
          <mxGeometry x="340" y="60" width="200" height="50" as="geometry" />
        </mxCell>
        <mxCell id="Hs-CbxqH57ZrqjoUu4gl-21" value="" style="shape=table;startSize=0;container=1;collapsible=0;childLayout=tableLayout;fontSize=11;fillColor=none;strokeColor=none;" vertex="1" parent="WIyWlLk6GJQsqaUBKTNV-1">
          <mxGeometry x="400" y="240" width="60" height="45" as="geometry" />
        </mxCell>
        <mxCell id="Hs-CbxqH57ZrqjoUu4gl-22" value="" style="shape=tableRow;horizontal=0;startSize=0;swimlaneHead=0;swimlaneBody=0;strokeColor=inherit;top=0;left=0;bottom=0;right=0;collapsible=0;dropTarget=0;fillColor=none;points=[[0,0.5],[1,0.5]];portConstraint=eastwest;fontSize=16;" vertex="1" parent="Hs-CbxqH57ZrqjoUu4gl-21">
          <mxGeometry width="60" height="15" as="geometry" />
        </mxCell>
        <mxCell id="Hs-CbxqH57ZrqjoUu4gl-23" value="" style="shape=partialRectangle;html=1;whiteSpace=wrap;connectable=0;strokeColor=inherit;overflow=hidden;fillColor=none;top=0;left=0;bottom=0;right=0;pointerEvents=1;fontSize=12;align=left;spacingLeft=5;" vertex="1" parent="Hs-CbxqH57ZrqjoUu4gl-22">
          <mxGeometry width="60" height="15" as="geometry">
            <mxRectangle width="60" height="15" as="alternateBounds" />
          </mxGeometry>
        </mxCell>
        <mxCell id="Hs-CbxqH57ZrqjoUu4gl-24" value="" style="shape=tableRow;horizontal=0;startSize=0;swimlaneHead=0;swimlaneBody=0;strokeColor=inherit;top=0;left=0;bottom=0;right=0;collapsible=0;dropTarget=0;fillColor=none;points=[[0,0.5],[1,0.5]];portConstraint=eastwest;fontSize=16;" vertex="1" parent="Hs-CbxqH57ZrqjoUu4gl-21">
          <mxGeometry y="15" width="60" height="15" as="geometry" />
        </mxCell>
        <mxCell id="Hs-CbxqH57ZrqjoUu4gl-25" value="" style="shape=partialRectangle;html=1;whiteSpace=wrap;connectable=0;strokeColor=inherit;overflow=hidden;fillColor=none;top=0;left=0;bottom=0;right=0;pointerEvents=1;fontSize=12;align=left;spacingLeft=5;" vertex="1" parent="Hs-CbxqH57ZrqjoUu4gl-24">
          <mxGeometry width="60" height="15" as="geometry">
            <mxRectangle width="60" height="15" as="alternateBounds" />
          </mxGeometry>
        </mxCell>
        <mxCell id="Hs-CbxqH57ZrqjoUu4gl-26" value="" style="shape=tableRow;horizontal=0;startSize=0;swimlaneHead=0;swimlaneBody=0;strokeColor=inherit;top=0;left=0;bottom=0;right=0;collapsible=0;dropTarget=0;fillColor=none;points=[[0,0.5],[1,0.5]];portConstraint=eastwest;fontSize=16;" vertex="1" parent="Hs-CbxqH57ZrqjoUu4gl-21">
          <mxGeometry y="30" width="60" height="15" as="geometry" />
        </mxCell>
        <mxCell id="Hs-CbxqH57ZrqjoUu4gl-27" value="" style="shape=partialRectangle;html=1;whiteSpace=wrap;connectable=0;strokeColor=inherit;overflow=hidden;fillColor=none;top=0;left=0;bottom=0;right=0;pointerEvents=1;fontSize=12;align=left;spacingLeft=5;" vertex="1" parent="Hs-CbxqH57ZrqjoUu4gl-26">
          <mxGeometry width="60" height="15" as="geometry">
            <mxRectangle width="60" height="15" as="alternateBounds" />
          </mxGeometry>
        </mxCell>
        <mxCell id="Hs-CbxqH57ZrqjoUu4gl-33" value="&lt;font style=&quot;font-size: 7px;&quot;&gt;Automated Gantry System&amp;nbsp;&lt;/font&gt;" style="whiteSpace=wrap;html=1;" vertex="1" parent="WIyWlLk6GJQsqaUBKTNV-1">
          <mxGeometry x="280" y="130" width="90" height="30" as="geometry" />
        </mxCell>
        <mxCell id="Hs-CbxqH57ZrqjoUu4gl-34" value="" style="endArrow=classic;html=1;rounded=0;exitX=0.45;exitY=1;exitDx=0;exitDy=0;exitPerimeter=0;" edge="1" parent="WIyWlLk6GJQsqaUBKTNV-1" source="Hs-CbxqH57ZrqjoUu4gl-15" target="Hs-CbxqH57ZrqjoUu4gl-33">
          <mxGeometry width="50" height="50" relative="1" as="geometry">
            <mxPoint x="410" y="290" as="sourcePoint" />
            <mxPoint x="330" y="260" as="targetPoint" />
            <Array as="points" />
          </mxGeometry>
        </mxCell>
        <mxCell id="Hs-CbxqH57ZrqjoUu4gl-35" value="" style="shape=table;startSize=0;container=1;collapsible=0;childLayout=tableLayout;fontSize=11;fillColor=none;strokeColor=none;" vertex="1" parent="WIyWlLk6GJQsqaUBKTNV-1">
          <mxGeometry x="720" y="240" width="60" height="45" as="geometry" />
        </mxCell>
        <mxCell id="Hs-CbxqH57ZrqjoUu4gl-36" value="" style="shape=tableRow;horizontal=0;startSize=0;swimlaneHead=0;swimlaneBody=0;strokeColor=inherit;top=0;left=0;bottom=0;right=0;collapsible=0;dropTarget=0;fillColor=none;points=[[0,0.5],[1,0.5]];portConstraint=eastwest;fontSize=16;" vertex="1" parent="Hs-CbxqH57ZrqjoUu4gl-35">
          <mxGeometry width="60" height="15" as="geometry" />
        </mxCell>
        <mxCell id="Hs-CbxqH57ZrqjoUu4gl-37" value="" style="shape=partialRectangle;html=1;whiteSpace=wrap;connectable=0;strokeColor=inherit;overflow=hidden;fillColor=none;top=0;left=0;bottom=0;right=0;pointerEvents=1;fontSize=12;align=left;spacingLeft=5;" vertex="1" parent="Hs-CbxqH57ZrqjoUu4gl-36">
          <mxGeometry width="60" height="15" as="geometry">
            <mxRectangle width="60" height="15" as="alternateBounds" />
          </mxGeometry>
        </mxCell>
        <mxCell id="Hs-CbxqH57ZrqjoUu4gl-38" value="" style="shape=tableRow;horizontal=0;startSize=0;swimlaneHead=0;swimlaneBody=0;strokeColor=inherit;top=0;left=0;bottom=0;right=0;collapsible=0;dropTarget=0;fillColor=none;points=[[0,0.5],[1,0.5]];portConstraint=eastwest;fontSize=16;" vertex="1" parent="Hs-CbxqH57ZrqjoUu4gl-35">
          <mxGeometry y="15" width="60" height="15" as="geometry" />
        </mxCell>
        <mxCell id="Hs-CbxqH57ZrqjoUu4gl-39" value="" style="shape=partialRectangle;html=1;whiteSpace=wrap;connectable=0;strokeColor=inherit;overflow=hidden;fillColor=none;top=0;left=0;bottom=0;right=0;pointerEvents=1;fontSize=12;align=left;spacingLeft=5;" vertex="1" parent="Hs-CbxqH57ZrqjoUu4gl-38">
          <mxGeometry width="60" height="15" as="geometry">
            <mxRectangle width="60" height="15" as="alternateBounds" />
          </mxGeometry>
        </mxCell>
        <mxCell id="Hs-CbxqH57ZrqjoUu4gl-40" value="" style="shape=tableRow;horizontal=0;startSize=0;swimlaneHead=0;swimlaneBody=0;strokeColor=inherit;top=0;left=0;bottom=0;right=0;collapsible=0;dropTarget=0;fillColor=none;points=[[0,0.5],[1,0.5]];portConstraint=eastwest;fontSize=16;" vertex="1" parent="Hs-CbxqH57ZrqjoUu4gl-35">
          <mxGeometry y="30" width="60" height="15" as="geometry" />
        </mxCell>
        <mxCell id="Hs-CbxqH57ZrqjoUu4gl-41" value="" style="shape=partialRectangle;html=1;whiteSpace=wrap;connectable=0;strokeColor=inherit;overflow=hidden;fillColor=none;top=0;left=0;bottom=0;right=0;pointerEvents=1;fontSize=12;align=left;spacingLeft=5;" vertex="1" parent="Hs-CbxqH57ZrqjoUu4gl-40">
          <mxGeometry width="60" height="15" as="geometry">
            <mxRectangle width="60" height="15" as="alternateBounds" />
          </mxGeometry>
        </mxCell>
        <mxCell id="Hs-CbxqH57ZrqjoUu4gl-45" value="&lt;font style=&quot;font-size: 7px;&quot;&gt;Sensor &lt;span class=&quot;hljs-keyword&quot;&gt;Array&lt;/span&gt;&lt;/font&gt;" style="whiteSpace=wrap;html=1;" vertex="1" parent="WIyWlLk6GJQsqaUBKTNV-1">
          <mxGeometry x="510" y="130" width="90" height="30" as="geometry" />
        </mxCell>
        <mxCell id="Hs-CbxqH57ZrqjoUu4gl-46" value="" style="endArrow=classic;html=1;rounded=0;entryX=0.154;entryY=-0.103;entryDx=0;entryDy=0;entryPerimeter=0;" edge="1" parent="WIyWlLk6GJQsqaUBKTNV-1" target="Hs-CbxqH57ZrqjoUu4gl-45">
          <mxGeometry width="50" height="50" relative="1" as="geometry">
            <mxPoint x="460" y="110" as="sourcePoint" />
            <mxPoint x="520" y="130" as="targetPoint" />
            <Array as="points">
              <mxPoint x="460" y="110" />
            </Array>
          </mxGeometry>
        </mxCell>
        <mxCell id="Hs-CbxqH57ZrqjoUu4gl-48" value="" style="endArrow=classic;html=1;rounded=0;exitX=0.5;exitY=1;exitDx=0;exitDy=0;" edge="1" parent="WIyWlLk6GJQsqaUBKTNV-1" source="Hs-CbxqH57ZrqjoUu4gl-33">
          <mxGeometry width="50" height="50" relative="1" as="geometry">
            <mxPoint x="330" y="310" as="sourcePoint" />
            <mxPoint x="325" y="190" as="targetPoint" />
          </mxGeometry>
        </mxCell>
        <mxCell id="Hs-CbxqH57ZrqjoUu4gl-50" value="" style="endArrow=classic;html=1;rounded=0;exitX=0.5;exitY=1;exitDx=0;exitDy=0;" edge="1" parent="WIyWlLk6GJQsqaUBKTNV-1">
          <mxGeometry width="50" height="50" relative="1" as="geometry">
            <mxPoint x="560" y="160" as="sourcePoint" />
            <mxPoint x="560" y="190" as="targetPoint" />
          </mxGeometry>
        </mxCell>
        <mxCell id="Hs-CbxqH57ZrqjoUu4gl-51" value="&lt;font style=&quot;font-size: 7px;&quot;&gt;Imaging Systems &lt;/font&gt;" style="whiteSpace=wrap;html=1;" vertex="1" parent="WIyWlLk6GJQsqaUBKTNV-1">
          <mxGeometry x="280" y="190" width="90" height="30" as="geometry" />
        </mxCell>
        <mxCell id="O0ucOyXpBamYmzBu1KSR-27" value="" style="edgeStyle=orthogonalEdgeStyle;rounded=0;orthogonalLoop=1;jettySize=auto;html=1;entryX=0;entryY=0.5;entryDx=0;entryDy=0;" edge="1" parent="WIyWlLk6GJQsqaUBKTNV-1">
          <mxGeometry relative="1" as="geometry">
            <mxPoint x="600" y="208.1103030303031" as="sourcePoint" />
            <mxPoint x="705" y="210.57999999999998" as="targetPoint" />
            <Array as="points">
              <mxPoint x="600" y="210" />
              <mxPoint x="653" y="210" />
            </Array>
          </mxGeometry>
        </mxCell>
        <mxCell id="O0ucOyXpBamYmzBu1KSR-12" value="sensors" style="whiteSpace=wrap;strokeWidth=2;fontSize=9;" vertex="1" parent="WIyWlLk6GJQsqaUBKTNV-1">
          <mxGeometry x="510" y="190" width="90" height="30" as="geometry" />
        </mxCell>
        <mxCell id="O0ucOyXpBamYmzBu1KSR-58" value="" style="edgeStyle=orthogonalEdgeStyle;rounded=0;orthogonalLoop=1;jettySize=auto;html=1;" edge="1" parent="WIyWlLk6GJQsqaUBKTNV-1" source="O0ucOyXpBamYmzBu1KSR-13" target="O0ucOyXpBamYmzBu1KSR-57">
          <mxGeometry relative="1" as="geometry" />
        </mxCell>
        <mxCell id="O0ucOyXpBamYmzBu1KSR-13" value="BH1750 (Light Intensity)" style="whiteSpace=wrap;strokeWidth=2;fontSize=7;" vertex="1" parent="WIyWlLk6GJQsqaUBKTNV-1">
          <mxGeometry x="705" y="200" width="75" height="25" as="geometry" />
        </mxCell>
        <mxCell id="O0ucOyXpBamYmzBu1KSR-46" value="" style="edgeStyle=orthogonalEdgeStyle;rounded=0;orthogonalLoop=1;jettySize=auto;html=1;" edge="1" parent="WIyWlLk6GJQsqaUBKTNV-1" source="O0ucOyXpBamYmzBu1KSR-14">
          <mxGeometry relative="1" as="geometry">
            <mxPoint x="810" y="171" as="targetPoint" />
          </mxGeometry>
        </mxCell>
        <mxCell id="O0ucOyXpBamYmzBu1KSR-14" value="DHT22 (Temperature &amp; Humidity)" style="whiteSpace=wrap;strokeWidth=2;fontSize=7;" vertex="1" parent="WIyWlLk6GJQsqaUBKTNV-1">
          <mxGeometry x="705" y="120" width="75" height="25" as="geometry" />
        </mxCell>
        <mxCell id="O0ucOyXpBamYmzBu1KSR-56" value="" style="edgeStyle=orthogonalEdgeStyle;rounded=0;orthogonalLoop=1;jettySize=auto;html=1;" edge="1" parent="WIyWlLk6GJQsqaUBKTNV-1" source="O0ucOyXpBamYmzBu1KSR-15" target="O0ucOyXpBamYmzBu1KSR-55">
          <mxGeometry relative="1" as="geometry" />
        </mxCell>
        <mxCell id="O0ucOyXpBamYmzBu1KSR-15" value="Chlorophyll Fluorescence" style="whiteSpace=wrap;strokeWidth=2;fontSize=7;" vertex="1" parent="WIyWlLk6GJQsqaUBKTNV-1">
          <mxGeometry x="705" y="161" width="75" height="25" as="geometry" />
        </mxCell>
        <mxCell id="O0ucOyXpBamYmzBu1KSR-60" value="" style="edgeStyle=orthogonalEdgeStyle;rounded=0;orthogonalLoop=1;jettySize=auto;html=1;" edge="1" parent="WIyWlLk6GJQsqaUBKTNV-1" source="O0ucOyXpBamYmzBu1KSR-16" target="O0ucOyXpBamYmzBu1KSR-59">
          <mxGeometry relative="1" as="geometry" />
        </mxCell>
        <mxCell id="O0ucOyXpBamYmzBu1KSR-16" value="MLX90614 (Infrared Temperature)" style="whiteSpace=wrap;strokeWidth=2;fontSize=7;" vertex="1" parent="WIyWlLk6GJQsqaUBKTNV-1">
          <mxGeometry x="705" y="244" width="75" height="25" as="geometry" />
        </mxCell>
        <mxCell id="O0ucOyXpBamYmzBu1KSR-62" value="" style="edgeStyle=orthogonalEdgeStyle;rounded=0;orthogonalLoop=1;jettySize=auto;html=1;" edge="1" parent="WIyWlLk6GJQsqaUBKTNV-1" source="O0ucOyXpBamYmzBu1KSR-17" target="O0ucOyXpBamYmzBu1KSR-61">
          <mxGeometry relative="1" as="geometry" />
        </mxCell>
        <mxCell id="O0ucOyXpBamYmzBu1KSR-17" value="Ultrasound Sensor  (Pest Detection Data)" style="whiteSpace=wrap;strokeWidth=2;fontSize=7;" vertex="1" parent="WIyWlLk6GJQsqaUBKTNV-1">
          <mxGeometry x="705" y="290" width="75" height="25" as="geometry" />
        </mxCell>
        <mxCell id="O0ucOyXpBamYmzBu1KSR-64" value="" style="edgeStyle=orthogonalEdgeStyle;rounded=0;orthogonalLoop=1;jettySize=auto;html=1;" edge="1" parent="WIyWlLk6GJQsqaUBKTNV-1" source="O0ucOyXpBamYmzBu1KSR-18" target="O0ucOyXpBamYmzBu1KSR-63">
          <mxGeometry relative="1" as="geometry" />
        </mxCell>
        <mxCell id="O0ucOyXpBamYmzBu1KSR-18" value="other sensors" style="whiteSpace=wrap;strokeWidth=2;fontSize=7;" vertex="1" parent="WIyWlLk6GJQsqaUBKTNV-1">
          <mxGeometry x="705" y="345" width="75" height="25" as="geometry" />
        </mxCell>
        <mxCell id="O0ucOyXpBamYmzBu1KSR-19" value="" style="curved=1;startArrow=none;endArrow=block;exitX=0.61;exitY=0.01;entryX=0.25;entryY=0;entryDx=0;entryDy=0;" edge="1" parent="WIyWlLk6GJQsqaUBKTNV-1" target="O0ucOyXpBamYmzBu1KSR-14">
          <mxGeometry relative="1" as="geometry">
            <Array as="points">
              <mxPoint x="680" y="73.5" />
            </Array>
            <mxPoint x="580.1020408163265" y="191.5" as="sourcePoint" />
            <mxPoint x="720" y="133.5" as="targetPoint" />
          </mxGeometry>
        </mxCell>
        <mxCell id="O0ucOyXpBamYmzBu1KSR-20" value="" style="curved=1;startArrow=none;endArrow=block;exitX=0.83;exitY=0.01;entryX=0;entryY=0.49;" edge="1" parent="WIyWlLk6GJQsqaUBKTNV-1" source="O0ucOyXpBamYmzBu1KSR-12" target="O0ucOyXpBamYmzBu1KSR-15">
          <mxGeometry relative="1" as="geometry">
            <Array as="points">
              <mxPoint x="665" y="170" />
            </Array>
          </mxGeometry>
        </mxCell>
        <mxCell id="O0ucOyXpBamYmzBu1KSR-21" value="" style="curved=1;startArrow=none;endArrow=block;exitX=0.83;exitY=0.99;entryX=0;entryY=0.48;" edge="1" parent="WIyWlLk6GJQsqaUBKTNV-1" source="O0ucOyXpBamYmzBu1KSR-12" target="O0ucOyXpBamYmzBu1KSR-16">
          <mxGeometry relative="1" as="geometry">
            <Array as="points">
              <mxPoint x="665" y="269" />
            </Array>
          </mxGeometry>
        </mxCell>
        <mxCell id="O0ucOyXpBamYmzBu1KSR-22" value="" style="curved=1;startArrow=none;endArrow=block;exitX=0.61;exitY=0.99;entryX=0;entryY=0.49;" edge="1" parent="WIyWlLk6GJQsqaUBKTNV-1" source="O0ucOyXpBamYmzBu1KSR-12" target="O0ucOyXpBamYmzBu1KSR-17">
          <mxGeometry relative="1" as="geometry">
            <Array as="points">
              <mxPoint x="665" y="367" />
            </Array>
          </mxGeometry>
        </mxCell>
        <mxCell id="O0ucOyXpBamYmzBu1KSR-23" value="" style="curved=1;startArrow=none;endArrow=block;exitX=0.57;exitY=0.99;entryX=0;entryY=0.48;" edge="1" parent="WIyWlLk6GJQsqaUBKTNV-1" source="O0ucOyXpBamYmzBu1KSR-12" target="O0ucOyXpBamYmzBu1KSR-18">
          <mxGeometry relative="1" as="geometry">
            <Array as="points">
              <mxPoint x="665" y="466" />
            </Array>
          </mxGeometry>
        </mxCell>
        <mxCell id="O0ucOyXpBamYmzBu1KSR-33" value="" style="endArrow=block;startArrow=block;endFill=1;startFill=1;html=1;rounded=0;" edge="1" parent="WIyWlLk6GJQsqaUBKTNV-1">
          <mxGeometry width="160" relative="1" as="geometry">
            <mxPoint x="245" y="244" as="sourcePoint" />
            <mxPoint x="405" y="244" as="targetPoint" />
            <Array as="points">
              <mxPoint x="320" y="220" />
            </Array>
          </mxGeometry>
        </mxCell>
        <mxCell id="O0ucOyXpBamYmzBu1KSR-71" value="" style="edgeStyle=orthogonalEdgeStyle;rounded=0;orthogonalLoop=1;jettySize=auto;html=1;" edge="1" parent="WIyWlLk6GJQsqaUBKTNV-1" source="O0ucOyXpBamYmzBu1KSR-37" target="O0ucOyXpBamYmzBu1KSR-70">
          <mxGeometry relative="1" as="geometry" />
        </mxCell>
        <mxCell id="O0ucOyXpBamYmzBu1KSR-37" value="&lt;font style=&quot;font-size: 8px;&quot;&gt;RGB Camera (Visual Images)&lt;/font&gt;" style="strokeWidth=2;html=1;shape=mxgraph.flowchart.start_1;whiteSpace=wrap;" vertex="1" parent="WIyWlLk6GJQsqaUBKTNV-1">
          <mxGeometry x="200" y="244" width="100" height="60" as="geometry" />
        </mxCell>
        <mxCell id="O0ucOyXpBamYmzBu1KSR-75" value="" style="edgeStyle=orthogonalEdgeStyle;rounded=0;orthogonalLoop=1;jettySize=auto;html=1;" edge="1" parent="WIyWlLk6GJQsqaUBKTNV-1">
          <mxGeometry relative="1" as="geometry">
            <mxPoint x="409.74030303030304" y="304.0000000000001" as="sourcePoint" />
            <mxPoint x="449.74" y="460" as="targetPoint" />
          </mxGeometry>
        </mxCell>
        <mxCell id="O0ucOyXpBamYmzBu1KSR-38" value="&lt;font style=&quot;font-size: 8px;&quot;&gt;IR Camera (Thermal Images)&lt;/font&gt;" style="strokeWidth=2;html=1;shape=mxgraph.flowchart.start_1;whiteSpace=wrap;" vertex="1" parent="WIyWlLk6GJQsqaUBKTNV-1">
          <mxGeometry x="360" y="244" width="100" height="60" as="geometry" />
        </mxCell>
        <mxCell id="K-EcxxmEyhnGGMUk8NAU-5" value="" style="edgeStyle=orthogonalEdgeStyle;rounded=0;orthogonalLoop=1;jettySize=auto;html=1;" edge="1" parent="WIyWlLk6GJQsqaUBKTNV-1" source="O0ucOyXpBamYmzBu1KSR-41" target="K-EcxxmEyhnGGMUk8NAU-4">
          <mxGeometry relative="1" as="geometry">
            <Array as="points">
              <mxPoint x="750" y="490" />
              <mxPoint x="750" y="490" />
            </Array>
          </mxGeometry>
        </mxCell>
        <mxCell id="O0ucOyXpBamYmzBu1KSR-41" value="" style="shape=waypoint;sketch=0;size=6;pointerEvents=1;points=[];fillColor=default;resizable=0;rotatable=0;perimeter=centerPerimeter;snapToPoint=1;fontSize=7;strokeWidth=2;" vertex="1" parent="WIyWlLk6GJQsqaUBKTNV-1">
          <mxGeometry x="800" y="480" width="20" height="20" as="geometry" />
        </mxCell>
        <mxCell id="O0ucOyXpBamYmzBu1KSR-65" value="" style="edgeStyle=orthogonalEdgeStyle;rounded=0;orthogonalLoop=1;jettySize=auto;html=1;" edge="1" parent="WIyWlLk6GJQsqaUBKTNV-1" source="O0ucOyXpBamYmzBu1KSR-55" target="O0ucOyXpBamYmzBu1KSR-61">
          <mxGeometry relative="1" as="geometry" />
        </mxCell>
        <mxCell id="O0ucOyXpBamYmzBu1KSR-55" value="" style="shape=waypoint;sketch=0;size=6;pointerEvents=1;points=[];fillColor=default;resizable=0;rotatable=0;perimeter=centerPerimeter;snapToPoint=1;fontSize=7;strokeWidth=2;" vertex="1" parent="WIyWlLk6GJQsqaUBKTNV-1">
          <mxGeometry x="800" y="163.5" width="20" height="20" as="geometry" />
        </mxCell>
        <mxCell id="O0ucOyXpBamYmzBu1KSR-57" value="" style="shape=waypoint;sketch=0;size=6;pointerEvents=1;points=[];fillColor=default;resizable=0;rotatable=0;perimeter=centerPerimeter;snapToPoint=1;fontSize=7;strokeWidth=2;" vertex="1" parent="WIyWlLk6GJQsqaUBKTNV-1">
          <mxGeometry x="800" y="202.5" width="20" height="20" as="geometry" />
        </mxCell>
        <mxCell id="O0ucOyXpBamYmzBu1KSR-59" value="" style="shape=waypoint;sketch=0;size=6;pointerEvents=1;points=[];fillColor=default;resizable=0;rotatable=0;perimeter=centerPerimeter;snapToPoint=1;fontSize=7;strokeWidth=2;" vertex="1" parent="WIyWlLk6GJQsqaUBKTNV-1">
          <mxGeometry x="800" y="246.5" width="20" height="20" as="geometry" />
        </mxCell>
        <mxCell id="O0ucOyXpBamYmzBu1KSR-66" value="" style="edgeStyle=orthogonalEdgeStyle;rounded=0;orthogonalLoop=1;jettySize=auto;html=1;" edge="1" parent="WIyWlLk6GJQsqaUBKTNV-1" source="O0ucOyXpBamYmzBu1KSR-61" target="O0ucOyXpBamYmzBu1KSR-63">
          <mxGeometry relative="1" as="geometry" />
        </mxCell>
        <mxCell id="O0ucOyXpBamYmzBu1KSR-61" value="" style="shape=waypoint;sketch=0;size=6;pointerEvents=1;points=[];fillColor=default;resizable=0;rotatable=0;perimeter=centerPerimeter;snapToPoint=1;fontSize=7;strokeWidth=2;" vertex="1" parent="WIyWlLk6GJQsqaUBKTNV-1">
          <mxGeometry x="800" y="292.5" width="20" height="20" as="geometry" />
        </mxCell>
        <mxCell id="O0ucOyXpBamYmzBu1KSR-67" value="" style="edgeStyle=orthogonalEdgeStyle;rounded=0;orthogonalLoop=1;jettySize=auto;html=1;" edge="1" parent="WIyWlLk6GJQsqaUBKTNV-1" source="O0ucOyXpBamYmzBu1KSR-63" target="O0ucOyXpBamYmzBu1KSR-41">
          <mxGeometry relative="1" as="geometry" />
        </mxCell>
        <mxCell id="O0ucOyXpBamYmzBu1KSR-63" value="" style="shape=waypoint;sketch=0;size=6;pointerEvents=1;points=[];fillColor=default;resizable=0;rotatable=0;perimeter=centerPerimeter;snapToPoint=1;fontSize=7;strokeWidth=2;" vertex="1" parent="WIyWlLk6GJQsqaUBKTNV-1">
          <mxGeometry x="800" y="347.5" width="20" height="20" as="geometry" />
        </mxCell>
        <mxCell id="O0ucOyXpBamYmzBu1KSR-68" value="" style="shape=waypoint;sketch=0;size=6;pointerEvents=1;points=[];fillColor=default;resizable=0;rotatable=0;perimeter=centerPerimeter;snapToPoint=1;fontSize=7;strokeWidth=2;" vertex="1" parent="WIyWlLk6GJQsqaUBKTNV-1">
          <mxGeometry x="500" y="480" width="20" height="20" as="geometry" />
        </mxCell>
        <mxCell id="O0ucOyXpBamYmzBu1KSR-79" value="" style="edgeStyle=orthogonalEdgeStyle;rounded=0;orthogonalLoop=1;jettySize=auto;html=1;entryX=0;entryY=0.25;entryDx=0;entryDy=0;" edge="1" parent="WIyWlLk6GJQsqaUBKTNV-1" source="O0ucOyXpBamYmzBu1KSR-70" target="O0ucOyXpBamYmzBu1KSR-76">
          <mxGeometry relative="1" as="geometry">
            <mxPoint x="400" y="470" as="targetPoint" />
          </mxGeometry>
        </mxCell>
        <mxCell id="O0ucOyXpBamYmzBu1KSR-70" value="" style="shape=waypoint;sketch=0;size=6;pointerEvents=1;points=[];fillColor=default;resizable=0;rotatable=0;perimeter=centerPerimeter;snapToPoint=1;strokeWidth=2;" vertex="1" parent="WIyWlLk6GJQsqaUBKTNV-1">
          <mxGeometry x="240" y="460" width="20" height="20" as="geometry" />
        </mxCell>
        <mxCell id="O0ucOyXpBamYmzBu1KSR-76" value="&lt;p data-pm-slice=&quot;0 0 []&quot;&gt;Central Processing Hub  (Data Collection &amp;amp; Logging)&lt;/p&gt;" style="whiteSpace=wrap;html=1;align=center;" vertex="1" parent="WIyWlLk6GJQsqaUBKTNV-1">
          <mxGeometry x="414" y="460" width="116" height="40" as="geometry" />
        </mxCell>
        <mxCell id="K-EcxxmEyhnGGMUk8NAU-7" value="" style="edgeStyle=orthogonalEdgeStyle;rounded=0;orthogonalLoop=1;jettySize=auto;html=1;" edge="1" parent="WIyWlLk6GJQsqaUBKTNV-1" source="K-EcxxmEyhnGGMUk8NAU-4">
          <mxGeometry relative="1" as="geometry">
            <mxPoint x="525" y="485" as="targetPoint" />
          </mxGeometry>
        </mxCell>
        <mxCell id="K-EcxxmEyhnGGMUk8NAU-4" value="&lt;font style=&quot;font-size: 9px;&quot;&gt;mock and read sensors&lt;/font&gt;" style="whiteSpace=wrap;html=1;" vertex="1" parent="WIyWlLk6GJQsqaUBKTNV-1">
          <mxGeometry x="650" y="470" width="90" height="30" as="geometry" />
        </mxCell>
      </root>
    </mxGraphModel>
  </diagram>
</mxfile>
